PathFileType	4	(X/Y/Z)	/Users/itak/Documents/Research/Walk-IL/dataset/trc/00385_00012.trc
DataRate	CameraRate	NumFrames	NumMarkers	Units	OrigDataRate	OrigDataStartFrame	OrigNumFrames
100.000000	100.000000	4	55	mm	100.000000	225	600
Frame#	Time	RPSI			LPSI			L3			STRN			T10			C7			CLAV			RBAK			LBAK			LSHO			LUPA			LAEL			LAOL			LWTS			LWPS			LFRA			LIFD			LHPS			LHTS			RSHO			RUPA			RAEL			RAOL			RWTS			RWPS			RFRA			RIFD			RHTS			RHPS			RBHD			LFHD			RFHD			RHIP			RASI			LKNE			LTHI			LANK			LTIP			LTOE			LMT1			LMT5			LHEE			RKNE			RANK			RTIP			RTOE			RMT1			RMT5			RHEE			LASI			LBHD			LHIP			RTHI			*53			*54			
		X1	Y1	Z1	X2	Y2	Z2	X3	Y3	Z3	X4	Y4	Z4	X5	Y5	Z5	X6	Y6	Z6	X7	Y7	Z7	X8	Y8	Z8	X9	Y9	Z9	X10	Y10	Z10	X11	Y11	Z11	X12	Y12	Z12	X13	Y13	Z13	X14	Y14	Z14	X15	Y15	Z15	X16	Y16	Z16	X17	Y17	Z17	X18	Y18	Z18	X19	Y19	Z19	X20	Y20	Z20	X21	Y21	Z21	X22	Y22	Z22	X23	Y23	Z23	X24	Y24	Z24	X25	Y25	Z25	X26	Y26	Z26	X27	Y27	Z27	X28	Y28	Z28	X29	Y29	Z29	X30	Y30	Z30	X31	Y31	Z31	X32	Y32	Z32	X33	Y33	Z33	X34	Y34	Z34	X35	Y35	Z35	X36	Y36	Z36	X37	Y37	Z37	X38	Y38	Z38	X39	Y39	Z39	X40	Y40	Z40	X41	Y41	Z41	X42	Y42	Z42	X43	Y43	Z43	X44	Y44	Z44	X45	Y45	Z45	X46	Y46	Z46	X47	Y47	Z47	X48	Y48	Z48	X49	Y49	Z49	X50	Y50	Z50	X51	Y51	Z51	X52	Y52	Z52	X53	Y53	Z53	X54	Y54	Z54	X55	Y55	Z55	

226	2.25	953.9465942382812	979.1904296875	40.29680633544922	945.3631591796875	970.8482666015625	-91.53865051269531	951.8523559570312	1058.2744140625	-18.19975852966309	1198.930053710938	1210.151000976562	-25.76438140869141	948.2365112304688	1161.451293945312	-20.1143684387207	990.8895874023438	1410.199829101562	-29.35986709594727	1145.177612304688	1328.937866210938	-26.87417793273926	945.8824462890625	1265.757446289062	41.65454483032227	970.3269653320312	1372.51123046875	-130.9389343261719	1057.625610351562	1384.001098632812	-184.7895202636719	1026.030151367188	1268.03076171875	-251.7679138183594	1037.7470703125	1072.1552734375	-281.2856140136719	980.8079223632812	1051.238647460938	-220.2007446289062	1145.243530273438	869.2910766601562	-252.0096130371094	1086.94775390625	849.7598876953125	-307.4411926269531	1057.581176757812	970.185546875	-293.1203308105469	1168.209838867188	697.3562622070312	-254.3473968505859	1112.412963867188	766.9765014648438	-304.2880859375	1171.585083007812	777.3709716796875	-279.0617370605469	1053.242309570312	1388.511962890625	128.3728790283203	1041.115356445312	1324.7685546875	188.8132019042969	1043.314208984375	1064.78564453125	235.0880889892578	1014.6630859375	1050.90771484375	146.2214660644531	1171.156127929688	853.0003662109375	196.1874542236328	1137.822387695312	841.95068359375	261.5848083496094	1071.130859375	999.32666015625	249.9953765869141	1182.216064453125	681.0057373046875	204.9744110107422	1198.24365234375	751.381591796875	216.3243560791016	1146.230834960938	752.4982299804688	261.9862670898438	1046.1748046875	1601.402954101562	45.89822769165039	1190.255737304688	1587.361450195312	-90.83133697509766	1179.127685546875	1598.798461914062	31.08420562744141	1044.354125976562	951.8460693359375	152.5782928466797	1173.129028320312	963.2345581054688	93.68616485595703	1166.55224609375	481.12109375	-185.4588317871094	1132.5732421875	617.6150512695312	-199.0425262451172	1027.803588867188	47.92451095581055	-159.8726043701172	1094.525146484375	254.9478759765625	-187.0498199462891	1240.92041015625	29.36290740966797	-96.29092407226562	1162.5830078125	42.74496459960938	-66.73302459716797	1154.123168945312	31.64912605285645	-170.0904693603516	990.16748046875	52.96159744262695	-103.4850387573242	1102.107543945312	464.8136291503906	117.9179458618164	1070.04150390625	45.85924530029297	73.79023742675781	1116.658325195312	340.3249816894531	96.84973907470703	1248.609375	26.11398887634277	7.281323909759521	1171.152099609375	31.30984306335449	-22.10661125183105	1154.18994140625	37.72028350830078	75.32476043701172	995.5767822265625	31.16600799560547	23.19318389892578	1144.192626953125	966.85888671875	-167.46728515625	1042.740600585938	1585.70361328125	-114.48095703125	1032.589721679688	966.6988525390625	-206.7006225585938	1128.731811523438	729.61083984375	142.4704437255859	nan	nan	nan	nan	nan	nan	
227	2.26	951.2338256835938	979.3989868164062	41.56589126586914	942.1084594726562	971.2094116210938	-90.24330139160156	948.8369140625	1058.541137695312	-16.77532005310059	1196.495361328125	1210.218994140625	-25.36031913757324	945.8348999023438	1161.71337890625	-18.47282981872559	988.5405883789062	1410.395874023438	-27.86084365844727	1142.79296875	1329.084838867188	-26.21202278137207	943.8290405273438	1265.970336914062	43.35937118530273	967.3662109375	1372.705444335938	-129.2594604492188	1054.44970703125	1384.241943359375	-183.5942230224609	1022.317565917969	1268.394775390625	-250.4883880615234	1033.463500976562	1072.561157226562	-280.2624206542969	976.8511962890625	1051.666137695312	-218.8324432373047	1141.188354492188	869.6866455078125	-251.8531036376953	1082.538330078125	850.181640625	-306.9607849121094	1053.167358398438	970.6043090820312	-292.3594360351562	1163.939819335938	697.5406494140625	-254.5527038574219	1108.00927734375	767.3655395507812	-304.0180969238281	1167.358642578125	777.7427978515625	-279.0915832519531	1051.699951171875	1388.651977539062	129.5899353027344	1039.78076171875	1324.962890625	190.0502319335938	1041.892456054688	1064.988403320312	236.29833984375	1012.823425292969	1051.195922851562	147.648193359375	1169.142333984375	852.9757080078125	196.6904144287109	1136.10302734375	841.968994140625	262.255859375	1069.727661132812	999.4853515625	251.0808868408203	1179.901733398438	680.97119140625	205.3492584228516	1196.10693359375	751.2841186523438	216.6344299316406	1144.376342773438	752.5037841796875	262.5875244140625	1043.727416992188	1601.559814453125	46.84147262573242	1187.219360351562	1587.683959960938	-90.49983978271484	1176.654541015625	1599.365234375	31.48208618164062	1042.695190429688	951.7117309570312	153.5803680419922	1170.476196289062	963.1436157226562	94.00975036621094	1166.435791015625	482.3447875976562	-185.9977722167969	1131.246948242188	618.5135498046875	-199.1064300537109	1027.62548828125	48.38484573364258	-160.5617065429688	1094.38623046875	256.140869140625	-187.8065490722656	1240.84423828125	30.6032772064209	-97.43793487548828	1162.521240234375	44.25257873535156	-67.60379028320312	1153.945190429688	31.76719665527344	-170.8522644042969	990.0865478515625	54.02677917480469	-104.1592712402344	1100.9814453125	464.7890014648438	118.356201171875	1070.025634765625	45.83132171630859	73.81777954101562	1115.905395507812	340.3348693847656	97.24080657958984	1248.656005859375	26.1188907623291	7.323190689086914	1171.16845703125	31.31897735595703	-22.08350944519043	1154.208618164062	37.71298980712891	75.33693695068359	995.6128540039062	31.15760803222656	23.19192695617676	1140.552490234375	967.2425537109375	-166.9638061523438	1039.600463867188	1585.571899414062	-113.51513671875	1028.44091796875	967.1599731445312	-205.9441375732422	1126.487060546875	729.7378540039062	142.6857147216797	nan	nan	nan	nan	nan	nan	
228	2.27	948.5150756835938	979.52978515625	42.80465698242188	938.812744140625	971.4406127929688	-89.01955413818359	945.8052978515625	1058.761474609375	-15.44418144226074	1193.980590820312	1210.239501953125	-24.96528625488281	943.2859497070312	1161.947387695312	-16.9320011138916	986.111328125	1410.54638671875	-26.43061637878418	1140.315795898438	1329.17041015625	-25.55244827270508	941.6732788085938	1266.132690429688	44.95443344116211	964.3839111328125	1372.864013671875	-127.6722640991211	1051.2646484375	1384.4384765625	-182.4525146484375	1018.613525390625	1268.702514648438	-249.255126953125	1029.153686523438	1072.902587890625	-279.2626037597656	972.8426513671875	1052.032104492188	-217.4961700439453	1137.018920898438	870.00537109375	-251.6612854003906	1078.02294921875	850.5196533203125	-306.4519348144531	1048.691528320312	970.9468383789062	-291.602783203125	1159.392944335938	697.4508666992188	-254.6266632080078	1103.481201171875	767.6763305664062	-303.7061157226562	1162.998657226562	778.0328369140625	-279.0694274902344	1050.026000976562	1388.744140625	130.7614135742188	1038.300170898438	1325.091552734375	191.2255096435547	1040.37109375	1065.1259765625	237.4952850341797	1010.894348144531	1051.40185546875	149.0577697753906	1167.079345703125	852.9337158203125	197.2025756835938	1134.334716796875	841.9654541015625	262.9378051757812	1068.233276367188	999.5878295898438	252.1552581787109	1177.616088867188	680.9251098632812	205.76171875	1193.971435546875	751.1868896484375	216.9839630126953	1142.540893554688	752.5009155273438	263.2266540527344	1041.159423828125	1601.650756835938	47.76470565795898	1184.091552734375	1588.005249023438	-90.15812683105469	1174.07666015625	1599.927001953125	31.88186264038086	1040.931640625	951.5379638671875	154.5186462402344	1167.80029296875	963.043212890625	94.29460906982422	1166.028564453125	483.4875183105469	-186.5644836425781	1129.633544921875	619.2863159179688	-199.224853515625	1027.034301757812	48.78703689575195	-161.3993530273438	1093.861450195312	257.2705993652344	-188.6625061035156	1240.309814453125	32.18437194824219	-98.63670349121094	1161.995971679688	45.86536026000977	-68.52444458007812	1153.363159179688	31.94105529785156	-171.6978302001953	989.5476684570312	54.9603157043457	-104.9913864135742	1099.864135742188	464.7583312988281	118.7410278320312	1070.022827148438	45.80764770507812	73.85489654541016	1115.134521484375	340.3382873535156	97.57978057861328	1248.694091796875	26.10586166381836	7.374814510345459	1171.1865234375	31.32118225097656	-22.06551170349121	1154.2353515625	37.71292495727539	75.34699249267578	995.6560668945312	31.15175437927246	23.1951961517334	1136.958129882812	967.598876953125	-166.5527648925781	1036.379760742188	1585.390869140625	-112.5644607543945	1024.509521484375	967.5042724609375	-205.1526336669922	1124.262939453125	729.8024291992188	142.8886260986328	nan	nan	nan	nan	nan	nan	
229	2.28	945.7691040039062	979.5637817382812	43.98641204833984	935.4805297851562	971.5191650390625	-87.87967681884766	942.7760009765625	1058.934204101562	-14.22030448913574	1191.373413085938	1210.216552734375	-24.58086585998535	940.5711059570312	1162.143920898438	-15.51724052429199	983.588623046875	1410.658813476562	-25.08701324462891	1137.734008789062	1329.190551757812	-24.89377593994141	939.388916015625	1266.239868164062	46.42134857177734	961.37841796875	1372.994995117188	-126.1991653442383	1048.072021484375	1384.591064453125	-181.3771820068359	1014.926330566406	1268.947387695312	-248.0802001953125	1024.838623046875	1073.17138671875	-278.2926025390625	968.8047485351562	1052.330078125	-216.2023162841797	1132.740112304688	870.22607421875	-251.4340972900391	1073.40673828125	850.7648315429688	-305.9148559570312	1044.171997070312	971.20556640625	-290.852294921875	1154.597412109375	697.1032104492188	-254.5805206298828	1098.827392578125	767.8986206054688	-303.3535461425781	1158.496704101562	778.2129516601562	-278.9901428222656	1048.189208984375	1388.783813476562	131.8695983886719	1036.647827148438	1325.1513671875	192.3325958251953	1038.733764648438	1065.194580078125	238.6683959960938	1008.854858398438	1051.513671875	150.4310760498047	1164.962890625	852.8795166015625	197.7287902832031	1132.50830078125	841.9454345703125	263.6317443847656	1066.627319335938	999.6317138671875	253.2071380615234	1175.362182617188	680.8692016601562	206.2234802246094	1191.841674804688	751.0989379882812	217.3850402832031	1140.697631835938	752.49072265625	263.8984680175781	1038.468139648438	1601.676147460938	48.66759490966797	1180.878295898438	1588.322387695312	-89.80862426757812	1171.3935546875	1600.468994140625	32.28110504150391	1039.033569335938	951.3365478515625	155.376953125	1165.105224609375	962.9375	94.54403686523438	1165.345581054688	484.543701171875	-187.1353759765625	1127.738891601562	619.9183349609375	-199.39111328125	1025.85498046875	49.21981430053711	-162.3664703369141	1092.857177734375	258.36669921875	-189.5840454101562	1239.124145507812	34.0757942199707	-99.84480285644531	1160.833862304688	47.5636100769043	-69.47132110595703	1152.193237304688	32.21699905395508	-172.5950927734375	988.37353515625	55.83467483520508	-105.9537048339844	1098.731079101562	464.7267456054688	119.0872421264648	1070.027465820312	45.78558731079102	73.90069580078125	1114.322631835938	340.3396606445312	97.87319183349609	1248.727905273438	26.07917594909668	7.436126708984375	1171.206298828125	31.31871604919434	-22.05022811889648	1154.265258789062	37.71716690063477	75.35588836669922	995.7000732421875	31.14715576171875	23.20650863647461	1133.423095703125	967.9312744140625	-166.2379608154297	1033.083251953125	1585.170776367188	-111.6311569213867	1020.8046875	967.7390747070312	-204.3411865234375	1122.052978515625	729.8111572265625	143.0837707519531	nan	nan	nan	nan	nan	nan	
